<svg width="11" height="19" viewBox="0 0 11 19" fill="none" xmlns="http://www.w3.org/2000/svg">
<mask id="path-1-inside-1_101_477" fill="white">
<path d="M9.308 18.616L0 9.308L9.308 0L10.371 1.064L2.128 9.308L10.372 17.552L9.308 18.616Z"/>
</mask>
<path d="M9.308 18.616L0 9.308L9.308 0L10.371 1.064L2.128 9.308L10.372 17.552L9.308 18.616Z" fill="white"/>
<path d="M9.308 18.616L7.18668 20.7373L9.308 22.8586L11.4293 20.7373L9.308 18.616ZM0 9.308L-2.12132 7.18668L-4.24264 9.308L-2.12132 11.4293L0 9.308ZM9.308 0L11.4303 -2.12032L9.309 -4.24364L7.18668 -2.12132L9.308 0ZM10.371 1.064L12.4924 3.18519L14.6125 1.06487L12.4933 -1.05632L10.371 1.064ZM2.128 9.308L0.00655087 7.18681L-2.11451 9.30813L0.00667971 11.4293L2.128 9.308ZM10.372 17.552L12.4933 19.6733L14.6146 17.552L12.4933 15.4307L10.372 17.552ZM11.4293 16.4947L2.12132 7.18668L-2.12132 11.4293L7.18668 20.7373L11.4293 16.4947ZM2.12132 11.4293L11.4293 2.12132L7.18668 -2.12132L-2.12132 7.18668L2.12132 11.4293ZM7.18568 2.12032L8.24868 3.18432L12.4933 -1.05632L11.4303 -2.12032L7.18568 2.12032ZM8.24955 -1.05719L0.00655087 7.18681L4.24945 11.4292L12.4924 3.18519L8.24955 -1.05719ZM0.00667971 11.4293L8.25068 19.6733L12.4933 15.4307L4.24932 7.18668L0.00667971 11.4293ZM8.25068 15.4307L7.18668 16.4947L11.4293 20.7373L12.4933 19.6733L8.25068 15.4307Z" fill="white" mask="url(#path-1-inside-1_101_477)"/>
</svg>
