<svg width="202" height="72" viewBox="0 0 202 72" fill="none" xmlns="http://www.w3.org/2000/svg">
<path d="M70.504 31.928H65.848V53H59.032V31.928H56.008V26.408H59.032V25.064C59.032 21.8 59.96 19.4 61.816 17.864C63.672 16.328 66.472 15.608 70.216 15.704V21.368C68.584 21.336 67.448 21.608 66.808 22.184C66.168 22.76 65.848 23.8 65.848 25.304V26.408H70.504V31.928ZM119.862 23.24C118.678 23.24 117.686 22.872 116.886 22.136C116.118 21.368 115.734 20.424 115.734 19.304C115.734 18.184 116.118 17.256 116.886 16.52C117.686 15.752 118.678 15.368 119.862 15.368C121.046 15.368 122.022 15.752 122.79 16.52C123.59 17.256 123.99 18.184 123.99 19.304C123.99 20.424 123.59 21.368 122.79 22.136C122.022 22.872 121.046 23.24 119.862 23.24ZM123.174 26.408V53H116.454V26.408H123.174ZM179.232 31.928V44.792C179.232 45.688 179.44 46.344 179.856 46.76C180.304 47.144 181.04 47.336 182.064 47.336H185.184V53H180.96C175.296 53 172.464 50.248 172.464 44.744V31.928H169.296V26.408H172.464V19.832H179.232V26.408H185.184V31.928H179.232Z" fill="#AFF479"/>
<path d="M99.072 17.48V53H93.6V17.48H99.072Z" fill="white"/>
<path d="M146.2 53.432C144.12 53.432 142.248 53.064 140.584 52.328C138.952 51.56 137.656 50.536 136.696 49.256C135.736 47.944 135.224 46.488 135.16 44.888H140.824C140.92 46.008 141.448 46.952 142.408 47.72C143.4 48.456 144.632 48.824 146.104 48.824C147.64 48.824 148.824 48.536 149.656 47.96C150.52 47.352 150.952 46.584 150.952 45.656C150.952 44.664 150.472 43.928 149.512 43.448C148.584 42.968 147.096 42.44 145.048 41.864C143.064 41.32 141.448 40.792 140.2 40.28C138.952 39.768 137.864 38.984 136.936 37.928C136.04 36.872 135.592 35.48 135.592 33.752C135.592 32.344 136.008 31.064 136.84 29.912C137.672 28.728 138.856 27.8 140.392 27.128C141.96 26.456 143.752 26.12 145.768 26.12C148.776 26.12 151.192 26.888 153.016 28.424C154.872 29.928 155.864 31.992 155.992 34.616H150.52C150.424 33.432 149.944 32.488 149.08 31.784C148.216 31.08 147.048 30.728 145.576 30.728C144.136 30.728 143.032 31 142.264 31.544C141.496 32.088 141.112 32.808 141.112 33.704C141.112 34.408 141.368 35 141.88 35.48C142.392 35.96 143.016 36.344 143.752 36.632C144.488 36.888 145.576 37.224 147.016 37.64C148.936 38.152 150.504 38.68 151.72 39.224C152.968 39.736 154.04 40.504 154.936 41.528C155.832 42.552 156.296 43.912 156.328 45.608C156.328 47.112 155.912 48.456 155.08 49.64C154.248 50.824 153.064 51.752 151.528 52.424C150.024 53.096 148.248 53.432 146.2 53.432Z" fill="white"/>
<path d="M36 35.4951L36 35.5049C36.0006 35.7481 35.9383 35.9871 35.8196 36.1987C35.7008 36.4102 35.5297 36.5868 35.3233 36.7118L35.3233 36.7118L35.3139 36.7175L4.20572 55.7854L4.20497 55.7858C3.9843 55.9212 3.73188 55.995 3.47374 55.9997C3.21562 56.0045 2.96069 55.9402 2.73522 55.8131L2.73069 55.8106C2.51005 55.687 2.32576 55.5064 2.19715 55.2871C2.06872 55.0681 2.00058 54.8185 2 54.5639V16.4361C2.00058 16.1815 2.06872 15.9319 2.19715 15.7129C2.32576 15.4936 2.51006 15.313 2.73069 15.1894L2.73069 15.1894L2.73522 15.1869C2.96069 15.0598 3.21562 14.9955 3.47375 15.0002C3.73187 15.005 3.9843 15.0788 4.20497 15.2142L4.20572 15.2146L35.3139 34.2825L35.3139 34.2825L35.3233 34.2882C35.5297 34.4132 35.7008 34.5898 35.8196 34.8013C35.9383 35.0129 36.0006 35.2519 36 35.4951Z" fill="#161616" stroke="white" stroke-width="4"/>
</svg>
